<svg width="770" height="540" fill="none" xmlns="http://www.w3.org/2000/svg"><g clip-path="url(#homepage-mobile_3813ca14__clip0_13540_227986)"><path d="M985 0H-215v540H985V0z" fill="#F4F1EA"/><path d="M481.51 240.264L771.454 126.48s-9.888-60.546-45.762-56.538c-34.806 3.888-34.278 42.348-61.662 65.022-34.05 28.188-44.25-17.766-76.344-.72-34.62 18.39-25.908 59.658-106.176 106.026v-.006zM-.356 119.988l226.47 100.974s-20.052-11.916-36.186-30.54c-22.746-26.262-28.644-63.66-64.29-51.132-22.29 7.83-38.73-24.84-68.328-51.528C25.612 59.178-20.342 69.75-.356 119.982v.006zM258.172 174.174l-88.698-52.302s-6.768-33.408 11.496-30.954c13.104 1.758 17.238 29.424 27.372 33.432 8.064 3.186 16.68-7.074 25.752 2.52 9.144 9.672-.396 27.978 24.072 47.304h.006zM337.348 310.38l105.666-36.192s-5.292-16.548-17.148-12.972c-11.196 3.378-14.112 21.336-29.616 17.892-10.206-2.268-21.6-.93-29.22 7.092-8.298 8.736-10.602 16.164-29.682 24.186v-.006z" fill="#E9E4D7"/><path d="M266.524 318.726v125.856h59.658V333.948l-59.658-15.222zM266.524 318.726l-28.722 24.09v101.766h28.722V318.726z" fill="#EFCD6C"/><path d="M326.182 333.948v110.634M306.298 328.872v115.71M286.414 323.802v120.78M266.524 318.726v125.856" stroke="#E9E4D7" stroke-width="1.5" stroke-linecap="round" stroke-linejoin="round"/><path d="M326.182 333.948v110.634M306.298 328.872v115.71M286.414 323.802v120.78M266.524 318.726v125.856" stroke="#D8B345" stroke-width="1.5" stroke-linecap="round" stroke-linejoin="round"/><path d="M205.498 248.262V459.6h61.8V271.176l-61.8-22.914z" fill="#47BFCA"/><path d="M205.498 248.262l-65.982 55.692V459.6h65.982V248.262z" fill="#00486A"/><path d="M260.338 277.044v25.044l-8.448-2.406v-25.578l8.448 2.94zM242.296 270.714v26.16l-8.448-2.43-.126-26.7 8.574 2.97zM260.338 313.23v25.044l-8.436-1.71V311.01l8.436 2.22zM224.164 303.702v27.252l-8.436-1.71v-27.708l8.436 2.166zM224.164 343.062v27.246l-8.43-1.056v-27.696l8.43 1.506zM242.296 346.278v26.118l-8.43-1.026v-26.604l8.43 1.512zM260.338 385.632v25.044l-8.412-.24v-25.548l8.412.744z" stroke="#00486A" stroke-width="1.5" stroke-linecap="round" stroke-linejoin="round"/><path d="M148.54 173.478v331.23h61.458V202.416l-61.458-28.938z" fill="#F8D8CB"/><path d="M148.54 173.478L77.602 209.19v295.518h70.938v-331.23z" fill="#F78D8C"/><path d="M148.54 173.478v331.23M157.318 177.612v327.096M166.102 181.746v322.962M174.88 185.88v318.828M183.658 190.014v314.694M192.442 194.148v310.56M201.22 198.282v306.426M209.998 202.416v302.292" stroke="#F78D8C" stroke-width="1.5" stroke-linecap="round" stroke-linejoin="round"/><path d="M16.672 226.716c8.64-36.732 27.372-60.732 36.078-58.242 5.814 1.662 0 15.954 0 15.954s25.59-21.222 35.478-13.692c6.804 5.184-4.458 19.65-4.458 19.65s25.05-9.906 28.782 0c2.046 5.424-5.028 9.894-5.028 9.894s13.662 4.116 15.648 15.738l-106.5 10.698z" stroke="#12545B" stroke-width="1.5" stroke-linecap="round" stroke-linejoin="round"/><path d="M61.966 190.488V475.11h74.058V218.406l-74.058-27.918z" fill="#44B0DF"/><path d="M61.966 190.488L.73 223.812V475.11h61.236V190.488z" fill="#00486A"/><path d="M145.276 246.864l-9.252 3.918-74.058-23.424v-7.986l83.31 27.492z" fill="#003650"/><path d="M145.276 236.094l-74.442-25.986-8.868 5.166v4.098l83.31 27.492v-10.77z" fill="#3274A4"/><path d="M145.234 278.916l-9.21 3.756-74.058-18.936v-7.194l83.268 22.374z" fill="#003650"/><path d="M145.234 268.242l-74.4-21.612-8.868 5.742v4.17l83.268 22.374v-10.674z" fill="#3274A4"/><path d="M145.234 311.064l-9.21 3.678-74.058-14.994v-6.162l83.268 17.478z" fill="#003650"/><path d="M145.234 300.282l-74.4-17.046-8.868 6.264v4.086l83.268 17.478v-10.782z" fill="#3274A4"/><path d="M145.234 343.098l-9.21 2.964-74.058-10.338v-4.998l83.268 12.372z" fill="#003650"/><path d="M145.234 332.388l-74.4-12.588-8.868 6.738v4.188l83.268 12.372v-10.71z" fill="#3274A4"/><path d="M70.834 210.108v12.21l-18.252 9.384v-12.33l18.252-9.264zM70.834 246.684v12.24L50.95 268.05v-12.186l19.884-9.18zM70.834 283.236v12.21l-19.53 8.082v-12.066l19.53-8.226zM70.834 319.8v12.246l-22.842 8.49v-12.234l22.842-8.502z" fill="#00486A"/><path d="M27.394 102.018c-2.454.612-5.406 2.568-3.582 4.146 2.01 1.74 7.842-.186 8.394-2.232.582-2.154-2.154-2.58-4.806-1.914h-.006zM23.303 132.347c.468 1.608 3.534 1.74 4.584 0 .9-1.494-.324-3.558-2.298-3.33-1.176.138-2.832 1.452-2.28 3.33h-.006zM4.36 131.826s13.956-7.59 10.356-14.202c-5.196-9.546-34.176-1.038-34.176-1.038s16.254-17.67 8.79-27.12c-7.464-9.45-39.756 3.726-69.57 37.296 1.764-10.002-3.27-19.92-16.788-8.766-11.412 9.42-24.78 36.6-24.78 57.114 12.456 2.118 50.496 6.006 50.496 6.006l102.69-25.74C25.27 135.888 4.36 131.82 4.36 131.82v.006z" fill="#12545B"/><path d="M-51.848 119.172V485.07l89.256-7.956v-321.48l-89.256-36.462z" fill="#F4F1EA"/><path d="M37.408 155.634l-89.256-36.462-74.706 54.306" stroke="#E9E4D7" stroke-width="1.5" stroke-linecap="round" stroke-linejoin="round"/><path d="M37.408 162.835l-89.256-36.066-74.706 53.232" stroke="#E9E4D7" stroke-width="1.5" stroke-linecap="round" stroke-linejoin="round"/><path d="M37.408 179.539l-89.256-33.144-74.706 50.634" stroke="#E9E4D7" stroke-width="1.5" stroke-linecap="round" stroke-linejoin="round"/><path d="M37.408 186.756l-89.256-32.688-74.706 49.638" stroke="#E9E4D7" stroke-width="1.5" stroke-linecap="round" stroke-linejoin="round"/><path d="M37.408 203.443l-89.256-29.826-74.706 46.962" stroke="#E9E4D7" stroke-width="1.5" stroke-linecap="round" stroke-linejoin="round"/><path d="M37.408 210.673l-89.256-29.298-74.706 46.044" stroke="#E9E4D7" stroke-width="1.5" stroke-linecap="round" stroke-linejoin="round"/><path d="M37.408 227.346l-89.256-26.508-74.706 43.29" stroke="#E9E4D7" stroke-width="1.5" stroke-linecap="round" stroke-linejoin="round"/><path d="M37.408 234.588l-89.256-25.908-74.706 42.444" stroke="#E9E4D7" stroke-width="1.5" stroke-linecap="round" stroke-linejoin="round"/><path d="M37.408 251.251l-89.256-23.19-74.706 39.618" stroke="#E9E4D7" stroke-width="1.5" stroke-linecap="round" stroke-linejoin="round"/><path d="M37.408 258.51l-89.256-22.524-74.706 38.85" stroke="#E9E4D7" stroke-width="1.5" stroke-linecap="round" stroke-linejoin="round"/><path d="M37.408 275.154l-89.256-19.872-74.706 35.946" stroke="#E9E4D7" stroke-width="1.5" stroke-linecap="round" stroke-linejoin="round"/><path d="M37.408 282.426l-89.256-19.14-74.706 35.256" stroke="#E9E4D7" stroke-width="1.5" stroke-linecap="round" stroke-linejoin="round"/><path d="M37.408 299.052l-89.256-16.542-74.706 32.268" stroke="#E9E4D7" stroke-width="1.5" stroke-linecap="round" stroke-linejoin="round"/><path d="M37.408 306.348l-89.256-15.756-74.706 31.656" stroke="#E9E4D7" stroke-width="1.5" stroke-linecap="round" stroke-linejoin="round"/><path d="M37.408 322.956l-89.256-13.224-74.706 28.596" stroke="#E9E4D7" stroke-width="1.5" stroke-linecap="round" stroke-linejoin="round"/><path d="M37.408 330.264l-89.256-12.366-74.706 28.062" stroke="#E9E4D7" stroke-width="1.5" stroke-linecap="round" stroke-linejoin="round"/><path d="M37.408 346.861l-89.256-9.906-74.706 24.924" stroke="#E9E4D7" stroke-width="1.5" stroke-linecap="round" stroke-linejoin="round"/><path d="M37.408 354.181l-89.256-8.976-74.706 24.462M37.408 370.764l-89.256-6.588-74.706 21.252" stroke="#E9E4D7" stroke-width="1.5" stroke-linecap="round" stroke-linejoin="round"/><path d="M37.408 378.102l-89.256-5.592-74.706 20.862M37.408 394.668l-89.256-3.27-74.706 17.58" stroke="#E9E4D7" stroke-width="1.5" stroke-linecap="round" stroke-linejoin="round"/><path d="M37.408 402.019l-89.256-2.208-74.706 17.274M37.408 418.596l-89.256.048-74.706 13.908M37.408 425.958l-89.256 1.182-74.706 13.674M37.408 444.163l-89.256 3.36-74.706 10.242M37.408 451.537l-89.256 4.566-74.706 10.08M37.408 469.722l-89.256 6.684-74.706 6.564M37.408 477.114l-89.256 7.956-74.706 6.48" stroke="#E9E4D7" stroke-width="1.5" stroke-linecap="round" stroke-linejoin="round"/><path d="M-51.848 119.172V485.07l89.256-7.956v-321.48l-89.256-36.462z" stroke="#BA2C5F" stroke-width="1.5" stroke-linecap="round" stroke-linejoin="round"/><path d="M630.124 453.558l-125.37-32.496h-290.82L-65.9 485.736-215 498.114V622.8l1200-76.278v-65.196l-354.876-27.768z" fill="#9BD8BF"/><path d="M434.488 456.39L-215 546.402v71.454l707.226-154.482-57.738-6.984z" fill="#F4F1EA"/><path d="M255.526 433.386L59.674 409.794l754.404 133.182L985 544.224v-20.988l-729.474-89.85z" fill="#F4F1EA"/><path d="M378.886 318.294v108.792h52.47V303.96l-52.47 14.334zM431.356 303.96l37.722 10.962v115.014l-37.722-2.85V303.96z" fill="#F4F1EA" stroke="#50C193" stroke-width="1.5" stroke-linecap="round" stroke-linejoin="round"/><path d="M378.886 332.502v94.584M387.634 324.954v102.132M396.376 334.242v92.844M405.124 319.662v107.424M413.866 342.228v84.858M422.608 322.782v104.304M431.356 340.452v86.634M440.632 316.266v110.82M449.908 330.048v97.038M469.078 314.922v115.014" stroke="#E9E4D7" stroke-width="1.5" stroke-linecap="round" stroke-linejoin="round"/><path d="M378.886 318.294v108.792h52.47V303.96l-52.47 14.334zM431.356 303.96l37.722 10.962v115.014l-37.722-2.85V303.96z" stroke="#50C193" stroke-width="1.5" stroke-linecap="round" stroke-linejoin="round"/><path d="M510.76 303.738c-7.212-8.832-26.178-18.264-29.922-14.676-4.41 4.224 5.82 11.394 5.82 11.394s-20.748-9.606-25.512-4.068c-3.84 4.464 7.518 9.762 7.518 9.762s-19.098.102-19.428 14.958l61.53-17.37h-.006zM450.982 303.198c1.818.51 3.402.498 3.468-.39.072-1.014-1.524-1.71-2.262-2.04-1.134-.504-2.382-1.014-2.952-.042-.606 1.032.534 2.124 1.746 2.472v0z" stroke="#12545B" stroke-width="1.5" stroke-linecap="round" stroke-linejoin="round"/><path d="M445.612 316.122v116.424h55.26V302.982l-55.26 13.14z" fill="#F8D8CB"/><path d="M445.612 316.122l55.26-13.14M445.612 319.596l55.26-13.146M445.612 334.932L500.872 324M445.612 338.418l55.26-10.95M445.612 353.736l55.26-8.724M445.612 357.246l55.26-8.76M445.612 372.51l55.26-6.51M445.612 376.038l55.26-6.57M445.612 391.308l55.26-4.302M445.612 394.854l55.26-4.38M445.612 410.1l55.26-2.088M445.612 413.67l55.26-2.191M445.612 428.958l55.26.12M445.612 432.546h55.26" stroke="#F78D8C" stroke-width="1.5" stroke-linecap="round" stroke-linejoin="round"/><path d="M499.786 263.898v158.124h59.622v-177.42l-59.622 19.296z" fill="#47BFCA"/><path d="M499.786 263.898v158.124M519.658 257.466v164.556M539.53 251.034v170.988M559.408 244.602v177.42" stroke="#008A8A" stroke-width="1.5" stroke-linecap="round" stroke-linejoin="round"/><path d="M559.408 195.3v219.468h65.412V167.25l-65.412 28.05zM624.82 167.25l53.238 26.55v220.968H624.82V167.25z" fill="#F4F1EA" stroke="#BA2C5F" stroke-width="1.5" stroke-linecap="round" stroke-linejoin="round"/><path d="M559.408 195.3l65.412-28.05 53.238 26.55" stroke="#E9E4D7" stroke-width="1.5" stroke-linecap="round" stroke-linejoin="round"/><path d="M559.408 202.866l65.388-27.078 53.262 25.632" stroke="#E9E4D7" stroke-width="1.5" stroke-linecap="round" stroke-linejoin="round"/><path d="M559.408 210.432l65.358-26.112 53.292 24.72" stroke="#E9E4D7" stroke-width="1.5" stroke-linecap="round" stroke-linejoin="round"/><path d="M559.408 218.004l65.328-25.146 53.322 23.802" stroke="#E9E4D7" stroke-width="1.5" stroke-linecap="round" stroke-linejoin="round"/><path d="M559.408 225.57l65.304-24.18 53.346 22.89" stroke="#E9E4D7" stroke-width="1.5" stroke-linecap="round" stroke-linejoin="round"/><path d="M559.408 233.136l65.274-23.208 53.376 21.972" stroke="#E9E4D7" stroke-width="1.5" stroke-linecap="round" stroke-linejoin="round"/><path d="M559.408 240.708l65.25-22.248 53.4 21.06" stroke="#E9E4D7" stroke-width="1.5" stroke-linecap="round" stroke-linejoin="round"/><path d="M559.408 248.274l65.22-21.276 53.43 20.136" stroke="#E9E4D7" stroke-width="1.5" stroke-linecap="round" stroke-linejoin="round"/><path d="M559.408 255.84l65.19-20.31 53.46 19.224" stroke="#E9E4D7" stroke-width="1.5" stroke-linecap="round" stroke-linejoin="round"/><path d="M559.408 263.412l65.166-19.344 53.484 18.306" stroke="#E9E4D7" stroke-width="1.5" stroke-linecap="round" stroke-linejoin="round"/><path d="M559.408 270.978l65.136-18.378 53.514 17.394" stroke="#E9E4D7" stroke-width="1.5" stroke-linecap="round" stroke-linejoin="round"/><path d="M559.408 278.544l65.112-17.406 53.538 16.476" stroke="#E9E4D7" stroke-width="1.5" stroke-linecap="round" stroke-linejoin="round"/><path d="M559.408 286.11l65.082-16.44 53.568 15.564" stroke="#E9E4D7" stroke-width="1.5" stroke-linecap="round" stroke-linejoin="round"/><path d="M559.408 293.682l65.052-15.474 53.598 14.646" stroke="#E9E4D7" stroke-width="1.5" stroke-linecap="round" stroke-linejoin="round"/><path d="M559.408 301.248l65.028-14.508 53.622 13.734" stroke="#E9E4D7" stroke-width="1.5" stroke-linecap="round" stroke-linejoin="round"/><path d="M559.408 308.814l64.998-13.536 53.652 12.816" stroke="#E9E4D7" stroke-width="1.5" stroke-linecap="round" stroke-linejoin="round"/><path d="M559.408 316.386l64.968-12.576 53.682 11.904" stroke="#E9E4D7" stroke-width="1.5" stroke-linecap="round" stroke-linejoin="round"/><path d="M559.408 323.952l64.944-11.604 53.706 10.986" stroke="#E9E4D7" stroke-width="1.5" stroke-linecap="round" stroke-linejoin="round"/><path d="M559.408 331.518l64.914-10.638 53.736 10.074" stroke="#E9E4D7" stroke-width="1.5" stroke-linecap="round" stroke-linejoin="round"/><path d="M559.408 339.09l64.89-9.672 53.76 9.15" stroke="#E9E4D7" stroke-width="1.5" stroke-linecap="round" stroke-linejoin="round"/><path d="M559.408 346.656l64.86-8.706 53.79 8.238M559.408 354.222l64.83-7.734 53.82 7.32M559.408 361.794l64.806-6.774 53.844 6.408M559.408 369.36l64.776-5.802 53.874 5.49M559.408 376.926l64.746-4.836 53.904 4.578M559.408 384.492l64.722-3.864 53.928 3.66M559.408 392.064l64.692-2.904 53.958 2.748M559.408 399.63l64.668-1.932 53.982 1.83M559.408 407.196l64.638-.966 54.012.918M559.408 414.768h118.65" stroke="#E9E4D7" stroke-width="1.5" stroke-linecap="round" stroke-linejoin="round"/><path d="M559.408 195.3v219.468h65.412V167.25l-65.412 28.05zM624.82 167.25l53.238 26.55v220.968H624.82V167.25z" stroke="#BA2C5F" stroke-width="1.5" stroke-linecap="round" stroke-linejoin="round"/><path d="M754.702 213.99c-10.788-31.032-54.378-61.134-62.598-53.556-6.066 5.598 6.384 18.372 6.384 18.372s-18.51-8.688-24.876-2.688c-6.372 6 11.766 11.82 11.766 11.82s-18.654-.24-26.01 16.062l95.334 9.99zM668.524 157.812c-.918 2.34-7.758-.18-6.498-3.186 1.182-2.826 7.398.894 6.498 3.186z" fill="#189E68"/><path d="M650.302 205.35v222.33h62.22V184.212l-62.22 21.138z" fill="#E47B5B"/><path d="M712.522 184.212l49.254 25.938v217.53h-49.254V184.212z" fill="#994D39"/><path d="M664.192 241.92l-6.408 1.77v-32.664l6.408-2.028v32.922zM703.918 231.138l-6.414 1.686v-34.782l6.414-2.034v35.13zM664.192 291.396l-6.408 1.164v-32.634l6.408-1.59v33.06zM703.918 336.42l-6.414.714v-34.806l6.414-1.014v35.106zM664.192 390.24l-6.408.186V357.81l6.408-.51v32.94zM684.19 389.634l-6.414.198v-33.69l6.414-.54v34.032zM684.19 287.52l-6.414 1.26v-33.624l6.414-1.656v34.02zM684.19 338.574l-6.414.72V305.61l6.414-1.062v34.026zM737.122 130.146c-.222 3.99-10.926 1.248-11.268-1.554-.45-3.69 11.502-2.598 11.268 1.554zM851.254 114.624c-9.432-1.89-13.458 10.242-12.45 21.09-21.744-28.272-58.17-42.114-61.026-30.108-2.94 12.36 10.14 20.412 10.14 20.412s-32.202-10.74-35.37 1.128c-2.436 9.126 13.542 14.298 13.542 14.298s-25.584 2.634-28.374 22.908l90.738-1.584 67.32 27.372c-5.832-28.614-27.828-72.168-44.526-75.51l.006-.006z" stroke="#12545B" stroke-width="1.5" stroke-linecap="round" stroke-linejoin="round"/><path d="M732.706 163.584v297.894l90.906 7.176V130.68l-90.906 32.904z" fill="#EFCD6C"/><path d="M738.058 161.658v300.246M732.706 163.583v298.009M759.448 153.912V463.59M754.276 155.771v307.591" stroke="#D8B345" stroke-width="1.5" stroke-linecap="round" stroke-linejoin="round"/><path d="M338.686 430.77l-135.282-10.626s33.414-27.978 50.658-32.334c17.244-4.356 12.042 13.098 12.042 13.098s18.144-23.508 38.73-21.168c17.478 1.986 0 28.158 0 28.158s24.456-18.936 39.744-11.214c17.094 8.634-5.892 34.092-5.892 34.092v-.006zM290.854 367.53c1.434 1.47 4.734-.402 6.546-3.216 1.656-2.574 1.362-6.18-1.692-5.226-2.514.786-6.762 6.486-4.854 8.442z" fill="#008A8A"/><path d="M316.042 429s-9.606-14.058 2.052-16.272c11.664-2.214 21.336 7.326 21.336 7.326s-12.474-16.092 1.482-20.202c13.188-3.882 32.868 18.69 32.868 18.69s-15.618-30.132 8.256-28.182c23.874 1.95 60.03 48.48 60.03 48.48l-126.018-9.846-.006.006z" fill="#50C193"/><path d="M537.359 373.254v73.05l-54.51-4.248V368.43l54.51 4.824z" fill="#00486A"/><path d="M398.566 376.302v59.124l84.282 6.624v-73.626l-84.282 7.872v.006z" fill="#44B0DF"/><path d="M442.103 341.49l62.388 16.11 32.868 15.654-54.511-4.824" fill="#00486A"/><path d="M435.67 438.341v-45.858l-22.524.924v43.176M398.566 376.302l43.536-34.812 40.746 26.94-84.282 7.872z" fill="#3274A4"/><path d="M449.194 391.95v13.56l22.524-.132v-14.31l-22.524.882zM449.194 405.51v13.518l22.524.618v-14.268l-22.524.132zM460.457 391.512v27.822" stroke="#F4F1EA" stroke-width="1.5" stroke-linecap="round" stroke-linejoin="round"/><path d="M582.85 285.804c-2.136-2.886-4.158-10.32-4.434-18.99-.318-10.062-3.558-19.158-12.726-18.888-8.13.24-9.612 9.99-10.488 16.926 0 0-3.162-.594-3.162 2.712s1.608 5.79.198 10.278c-1.458 4.41-2.856 8.502-2.694 14.286 0 0-3.15-1.506-4.38.822s.228 6.57 2.238 9.03c0 0-3.054-.102-3.468 2.328-.684 4.038 6.84 15.462 22.308 15.6 15.462.138 15.96-14.274 21.078-22.446 3.66-5.844.798-12.57-4.464-11.664l-.006.006z" fill="#189E68"/><path d="M566.35 268.092v84.252M573.676 277.854c-4.44 2.442-6.306 5.82-7.326 10.128M575.32 296.106c-4.734 2.37-8.364 8.556-8.97 12.318M559.354 275.484c3.498 1.236 6.996 6.768 6.996 11.04M556.252 294.828c5.64 2.946 9.54 9.69 10.098 14.964" stroke="#006A6A" stroke-width="1.5" stroke-linecap="round" stroke-linejoin="round"/><path d="M583.912 251.118c3.312-1.206-.954-10.23-3.738-9.39-1.92.576-1.26 3.312-.846 5.436.486 2.484 2.232 4.812 4.584 3.96v-.006z" fill="#189E68"/><path d="M647.668 344.778c7.02-15.372-28.404-33.492-38.826-27.588-8.31 4.704 4.044 19.182 4.044 19.182s-18.882-15.27-29.19-12.048c-6.51 2.034-1.998 11.532 3.042 15.738 0 0-18.402-7.056-31.95-.558-18.048 8.658-15.312 23.784-15.312 23.784l97.602 1.194s4.062-5.406 10.59-19.698v-.006zM595.815 317.124c2.688 1.698 4.897 0 4.543-2.19-.222-1.368-1.963-3.672-4.459-5.142-2.694-1.584-4.584.714-3.846 2.844.576 1.668 2.04 3.402 3.762 4.488z" fill="#12545B"/><path d="M516.436 364.482c-8.076-8.28-7.086-19.932 1.71-20.424 7.908-.438 15.954 4.74 15.954 4.74s-10.938-19.188 3.516-18.378c16.854.948 41.25 26.922 41.25 26.922l-62.436 7.134.006.006z" stroke="#12545B" stroke-width="1.44" stroke-linecap="round" stroke-linejoin="round"/><path d="M511.732 333.474c4.266 2.718 6.036-.09 3.042-2.862-2.43-2.244-4.02-4.572-5.4-3.63-1.548 1.056-.162 4.89 2.358 6.492v0zM514.786 309.102c-1.344-2.028-1.884-4.986-3.93-4.602-1.71.324-2.382 3.348-1.092 6.108 1.056 2.262 3.456 4.41 5.124 3.426 1.374-.81 1.374-2.7-.102-4.932z" stroke="#12545B" stroke-width="1.5" stroke-linecap="round" stroke-linejoin="round"/><path d="M608.014 352.068l29.064 8.628v14.136l-29.064-7.746v-15.018z" fill="#BA2C5F"/><path d="M503.59 370.218v73.428l104.424 8.19V361.56l-104.424 8.658z" fill="#FFBCA8"/><path d="M503.59 362.616v12.102l104.424-7.632v-15.018L503.59 362.616z" fill="#F78D8C"/><path d="M517.373 404.748v16.176l28.89.798v-16.974c0-8.148-6.738-14.688-14.886-14.436-7.8.24-14.004 6.63-14.004 14.436z" fill="#F4F1EA"/><path d="M558.718 403.494v44.478l28.89 2.268v-46.746c0-8.148-6.738-14.688-14.886-14.436-7.8.24-14.004 6.63-14.004 14.436z" fill="#3274A4"/><path d="M564.101 403.578h17.598a8.8 8.8 0 10-17.598 0z" fill="#F4F1EA"/><path d="M608.014 451.836l29.064 2.268v-79.272l-29.064-7.746v84.75z" fill="#F78D8C"/><path d="M512.296 413.652c-7.854-.594-5.046 9.654-2.172 14.256 0 0-18.162-13.452-23.562-7.8-4.32 4.512 8.928 13.866 8.928 13.866s-24.03-9.444-33.36 6.45l82.356 6.426s-21.528-32.388-32.19-33.192v-.006zM534.808 425.76c2.268 2.568 5.502 4.38 7.2 2.16 1.908-2.496-5.97-12.306-9.102-10.524-2.4 1.362-.192 5.988 1.908 8.364h-.006zM451.636 432.39c3.39 2.604 5.652 1.038 5.7 0 .06-1.206-1.752-2.472-4.278-2.766-2.526-.294-3.222 1.386-1.428 2.766h.006z" fill="#008A8A"/><path d="M630.124 308.85v144.702l151.68 11.88V282.588l-151.68 26.268v-.006z" fill="#47BFCA"/><path d="M689.428 389.49v68.712l33.126 2.598v-72.204l-33.126.894z" fill="#00486A"/><path d="M647.62 364.038v10.68l28.332-1.578v-11.31l-28.332 2.208zM647.62 331.968v32.07l28.332-2.208v-33.57l-28.332 3.708zM691.798 343.41v28.842l28.332-1.674v-29.952l-28.332 2.784z" stroke="#F4F1EA" stroke-width="1.5" stroke-linecap="round" stroke-linejoin="round"/><path d="M691.798 326.226v17.184l28.332-2.784v-18.024l-28.332 3.624zM735.946 351.24v18.498l28.338-1.638v-19.212l-28.338 2.352z" stroke="#F4F1EA" stroke-width="1.5" stroke-linecap="round" stroke-linejoin="round"/><path d="M735.946 320.616v30.624l28.338-2.352v-31.98l-28.338 3.708zM735.976 431.118v12.306l28.308 1.422V432.06l-28.308-.942z" stroke="#F4F1EA" stroke-width="1.5" stroke-linecap="round" stroke-linejoin="round"/><path d="M735.976 388.098v43.02l28.308.942v-44.754l-28.308.792zM647.668 428.088v10.668l28.296 1.59v-11.232l-28.296-1.026z" stroke="#F4F1EA" stroke-width="1.5" stroke-linecap="round" stroke-linejoin="round"/><path d="M647.668 390.786v37.302l28.296 1.026V389.79l-28.296.996z" stroke="#F4F1EA" stroke-width="1.5" stroke-linecap="round" stroke-linejoin="round"/><path d="M622.354 382.308s5.49-4.314 6.39 3.21c.9 7.53 2.233 15.228 6.019 22.536 4.236 8.184 3.797 15.162 2.069 21.324-2.274 8.124-9.192 13.05-18.522 13.05-8.688 0-13.979-7.476-15.473-11.088 0 0-4.447-2.61-5.095-6.072-.648-3.462 1.95-4.77 1.95-4.77s-1.698-6.372.45-7.83c2.148-1.458 4.296 1.302 4.296 1.302s2.599-7.728 3.247-13.848c.648-6.12 2.898-21.102 9.906-22.182 3.666-.564 4.775 4.368 4.775 4.368h-.012zM641.35 404.538c-1.344.492-3.048-.906-3.996-2.61-.948-1.704-1.842-4.998.144-5.634 1.926-.618 2.628 1.704 3.63 3.408 1.266 2.142 1.758 4.278.216 4.836h.006zM600.706 400.992c-.216 1.32-1.182 3.828-2.916 3.54-1.734-.288-1.41-2.346-1.164-3.912.246-1.566 1.062-5.16 3.072-4.752 2.016.408 1.008 5.124 1.008 5.124z" fill="#008A8A"/><path d="M618.364 392.442c-.45 7.224-.774 51.762-.774 65.16M625.948 398.538c-4.692 1.872-7.656 9.402-8.04 15.246M611.122 414.396c3.234 1.842 6.462 6.924 6.462 12.03M627.046 415.374c-6.834 3.048-9.138 11.952-9.336 18.54" stroke="#12545B" stroke-width="1.5" stroke-linecap="round" stroke-linejoin="round"/><path d="M318.832 377.652c13.758 0 21.666-13.47 21.666-23.028 0-6.39-4.74-3.972-4.74-3.972s-1.98-3.048-2.13-7.83c-.174-5.412 2.07-10.134.636-14.796-1.44-4.662-7.89-7.83-13.644-.924-5.76 6.906-4.896 15.198-6.042 17.556-1.152 2.358-5.874 5.412-6.618 10.476-.876 5.94.924 9.036.924 9.036s-3.858-2.016-5.01 1.038c-1.152 3.054 4.26 12.438 14.97 12.438l-.012.006z" fill="#189E68"/><path d="M323.896 332.286c-3.108 15.57-3.798 54.72-3.798 102.384M329.734 355.236c-2.676 1.65-7.158 6.234-8.826 11.994M329.386 338.886c-2.862 2.814-6.438 8.514-7.746 13.452M315.034 356.886c2.082 1.596 5.394 7.65 5.778 13.2" stroke="#006A6A" stroke-width="1.5" stroke-linecap="round" stroke-linejoin="round"/><path d="M333.124 378c-1.68 1.962-3.906 2.658-3.75 5.442.156 2.79 2.658 4.956 5.508 4.02 2.352-.774 2.874-4.05 3.504-5.556.624-1.506 2.556-5.982.642-7.17-2.238-1.38-4.218 1.302-5.898 3.258l-.006.006z" fill="#189E68"/><path d="M336.034 379.578c-4.386 4.686-12.87 14.538-15.846 27.834" stroke="#006A6A" stroke-width="1.5" stroke-linecap="round" stroke-linejoin="round"/><path d="M317.068 317.886c1.17-1.548 2.346-4.374.852-5.28-1.494-.906-3.78.912-4.878 2.91-1.098 1.998-1.284 4.578-.228 5.322 1.668 1.17 3.39-1.812 4.254-2.952z" fill="#189E68"/><path d="M365.788 395.754s-2.25-.078-2.556 1.716c-.504 2.976 5.04 11.394 16.434 11.496 11.394.102 13.866-10.506 15.528-16.536 1.356-4.926 2.016-8.568-1.212-8.976 0 0 .3-4.338-1.308-5.142-1.614-.804-2.418 1.11-2.418 1.11s-1.488-4.734-1.614-9.576c-.186-7.236-2.622-14.118-9.378-13.914-6.756.204-7.278 9.324-7.968 14.316-1.008 7.362-4.134 10.992-3.93 18.252 0 0-2.322-1.11-3.228.606-.906 1.716.168 4.842 1.644 6.654l.006-.006z" fill="#12545B"/><path d="M379.75 370.782v69.306M385.144 377.976c-3.27 1.8-4.644 4.29-5.394 7.464M386.356 391.416c-3.492 1.746-6.162 6.306-6.606 9.072M374.59 376.224c2.58.912 5.154 4.986 5.154 8.136M372.31 390.474c4.158 2.172 7.026 7.14 7.44 11.022" stroke="#008A8A" stroke-width="1.5" stroke-linecap="round" stroke-linejoin="round"/><path d="M396.928 474.552l-1.548 3.42 3.198 13.302-5.568 19.944c-3.708-6.756-5.436-12.852-6.096-21.732-.306-4.122.108-10.248.804-16.116l6.348 1.998 2.85-.822.012.006z" fill="#994D39"/><path d="M403.972 444.564l-.48 15.504-6.558 14.484-2.85.822-6.348-1.998c.9-7.572 2.274-14.706 3.168-16.518 1.59-3.21 13.074-12.294 13.074-12.294h-.006z" fill="#E5C054"/><path d="M422.218 487.794c2.448 5.826 8.658 27.66 10.248 55.578h-17.58l-8.328-21.912-1.476-32.688 17.136-.984v.006z" fill="#008A8A"/><path d="M395.392 487.284c-2.334 4.32-6.822 16.392-8.574 31.176-1.902 16.008-1.002 24.912-1.002 24.912h15.9l6.744-27.792v-27l-13.068-1.302v.006z" fill="#008A8A"/><path d="M401.722 543.372l5.124-21.132 8.034 21.132M417.484 523.596l-21.636-2.652" stroke="#12545B" stroke-width="1.5" stroke-linecap="round" stroke-linejoin="round"/><path d="M413.692 438.216v6.348h-9.72l2.262-8.082 7.458 1.734z" fill="#994D39"/><path d="M411.922 418.986c6.444 1.902 5.508 7.11 5.658 10.602.15 3.492 1.722 9.858-4.902 9.894-6.624.036-12.192-3.132-12.588-9.894-.396-6.762 4.638-12.726 11.832-10.602z" fill="#994D39"/><path d="M400.084 429.588c-.396-6.762 4.638-12.726 11.832-10.602 4.35 1.284 5.34 4.068 5.568 6.822-.546 1.452-1.356 2.592-2.382 3.21 0 0-1.272-1.644-2.166-.702-1.128 1.194.102 3.678 1.194 4.05 0 0-1.602 6.546-7.296 6.174-3.216-.21-6.48-4.332-6.75-8.952z" fill="#0A0F1C"/><path d="M408.52 427.272c-1.794 5.46-9.498 5.244-12.216.558-3.36-5.784 1.062-11.736 6.534-11.412 5.16.306 7.176 6.3 5.682 10.854z" fill="#0A0F1C"/><path d="M413.692 444.564l9.012 24.384 2.328 19.746c-6.792 3-23.994 5.25-33.132-.93l.588-30.216 9.936-8.772 1.542-4.212h9.726z" fill="#E5C054"/><path d="M432.243 491.274c.396 2.184 5.832 25.11 6.36 27.366.528 2.25 1.722 5.034 2.118 10.074.396 5.034-.366 8.25-1.794 7.62-.252.48-.846.48-1.176.21-.174.27-.744-.414-.894-1.65-1.32 1.128-1.32-7.224-1.434-9.492-.192-3.786-9.936-28.854-11.394-33.708-1.236-4.122-2.856-13.254-3.318-15.906l9.918-2.376c.876 8.292 1.398 16.686 1.614 17.868v-.006z" fill="#994D39"/><path d="M412.894 447.03l.798-2.466s11.13 7.2 13.914 12.414c1.278 2.394 2.28 9.378 3.024 16.434l-9.918 2.376c-.084-.468-.126-.738-.126-.738l-7.686-28.008-.006-.012z" fill="#E5C054"/><path d="M437.134 530.004c.012 2.412 0 5.268-.582 5.268-.528 0-.93-2.928-.93-6.282" stroke="#281E1E" stroke-width="1.5" stroke-linecap="round" stroke-linejoin="round"/><path d="M438.411 531.018c0 1.416-.048 5.274-.66 5.52-.894.36-.894-1.65-.894-1.65M439.605 532.128c0 2.16-.444 5.688-1.854 4.41M440.824 530.394c.03 1.734.066 6.864-1.896 5.934" stroke="#281E1E" stroke-width="1.5" stroke-linecap="round" stroke-linejoin="round"/><path d="M412.426 449.424c1.596-1.938 2.934-2.532 4.11-2.532 1.176 0 2.238.654 2.502 1.476 0 0-2.238.252-3.03 3.582 0 0-2.418-.426-3.576-2.532l-.006.006zM400.888 447.072c-.744 1.566-.96 4.728-.414 6.078l-3.114 1.146c-.582-1.458-.45-3.798.108-4.872.594-1.14 2.232-2.262 3.414-2.352h.006z" fill="#158A5B" stroke="#12545B" stroke-width="1.5" stroke-linecap="round" stroke-linejoin="round"/><path d="M416.722 451.038c3.906 4.308 4.908 26.316 2.394 30.96-3.276 6.048-21.282 5.784-24.348.426-3.084-5.382-4.518-25.536.114-30.882 4.23-4.884 17.022-5.82 21.846-.504h-.006z" fill="#158A5B"/><path d="M392.17 471.15c4.704 2.256 20.724 2.652 28.128-.21M423.4 489.324l-2.754-13.95M391.9 487.764l.318-13.704M445.93 492.72c1.764 1.29 3.204 4.182 3.378 6.852M457.114 517.182c-1.764 2.028-2.7 5.832-2.7 8.76M381.22 496.398c-1.692 1.458-2.652 4.83-2.652 7.242M250.102 524.37c2.112 1.098 4.248 4.044 4.626 6.972M472.534 493.165c-2.136 1.23-3.576 4.734-3.648 6.81M639.418 519.954c-1.338 1.278-2.682 4.602-2.682 7.224" stroke="#12545B" stroke-width="1.5" stroke-linecap="round" stroke-linejoin="round"/><path d="M78.46 349.23c3.708-4.242 13.692-1.284 18.57 1.326-2.556-4.704-4.512-10.806-.114-13.848 9.636-6.66 30.078 15.642 30.078 15.642s-3.798-12.624 2.454-13.2c11.394-1.044 26.514 31.518 26.514 31.518l-76.602 1.494s-7.554-15.312-.894-22.932h-.006z" fill="#008A8A"/><path d="M78.46 349.23c3.708-4.242 13.692-1.284 18.57 1.326-2.556-4.704-4.512-10.806-.114-13.848 9.636-6.66 30.078 15.642 30.078 15.642s-3.798-12.624 2.454-13.2c11.394-1.044 26.514 31.518 26.514 31.518l-76.602 1.494s-7.554-15.312-.894-22.932h-.006z" fill="#008A8A"/><path d="M167.428 367.896c13.08-19.494 31.566-29.442 39.024-27.45 9.42 2.52-8.58 24.264-8.58 24.264s16.008-14.178 34.068-16.47c15.426-1.956 4.956 12.798-1.758 16.47 0 0 41.124-8.496 41.124 15.42l-103.878-12.24v.006zM254.698 354.75c1.092 1.32 3.666 1.452 5.802-.906 2.274-2.52.972-5.082-1.212-4.836-2.64.294-6.588 3.324-4.584 5.742h-.006z" fill="#158A5B"/><path d="M144.004 365.604c-4.584-3.462-15.372-14.862-9.474-17.448 5.952-2.61 17.226 7.074 17.226 7.074s-10.104-18.24-1.062-18.18c10.644.072 26.76 26.064 29.568 32.946a58638.25 58638.25 0 00-36.258-4.398v.006zM150.724 317.532c2.028-2.058-1.926-5.592-4.686-10.488-2.502-4.434-6.756-3.642-5.94.264 1.152 5.514 8.01 12.876 10.626 10.224v0zM172.24 335.748c1.482 1.776 5.166 5.01 6.336 3.024.936-1.59-.81-3.492-2.298-6.126-2.01-3.552-4.158-5.406-5.658-4.614-1.722.918-.756 4.86 1.62 7.71v.006zM169.366 308.634c1.476-1.248-.192-6.852-1.464-8.694-1.992-2.88-5.232-1.626-3.894 3.66.72 2.85 3.648 6.474 5.358 5.034v0z" stroke="#12545B" stroke-width="1.5" stroke-linecap="round" stroke-linejoin="round"/><path d="M292.318 392.171L97.192 377.129v94.764l195.126-16.332v-63.39z" fill="#E47B5B"/><path d="M97.192 357.456l-4.194 9.858 4.194 9.816 195.126 15.042v-13.398L97.192 357.456z" fill="#994D39"/><path d="M97.192 377.129l-25.668 8.574v88.296l25.668-2.106v-94.764z" fill="#994D39"/><path d="M71.524 365.502v20.202l25.668-8.574v-19.674l-25.668 8.046z" fill="#713B2D"/><path d="M158.536 417.264v49.464l72.438-6.03v-42.816l-72.438-.618z" fill="#EFCD6C"/><path d="M182.68 417.528v47.262M206.83 417.75v44.964" stroke="#12545B" stroke-width="1.5" stroke-linecap="round" stroke-linejoin="round"/><path d="M243.79 418.062v29.633l26.856-1.553v-27.798l-26.856-.282z" fill="#EFCD6C"/><path d="M243.76 432.87l26.862-.648" stroke="#12545B" stroke-width="1.5" stroke-linecap="round" stroke-linejoin="round"/><path d="M117.352 398.004s-5.616-4.392-6.54 3.27c-.918 7.662 1.734 15.936-3.678 23.496-5.412 7.56-6.126 14.808-4.596 21.144 1.53 6.33 10.062 13.278 18.948 13.278 8.886 0 14.298-7.608 15.834-11.286 0 0 4.548-2.658 5.208-6.18.666-3.522-1.992-4.854-1.992-4.854s1.734-6.486-.462-7.968c-2.196-1.482-4.392 1.326-4.392 1.326s-2.658-7.866-3.318-14.094c-.666-6.228-2.094-12.822-7.302-16.188 0 0 .306-5.718-2.826-6.384-3.714-.786-4.884 4.446-4.884 4.446v-.006zM107.944 391.236c-1.428-.294-2.952 1.356-3.66 3.216-.708 1.86-1.134 5.304.972 5.652 2.04.342 2.406-2.1 3.18-3.966.966-2.346 1.152-4.566-.486-4.902h-.006zM145.606 429.252c.06 1.128.63 3.33 2.124 3.258 1.494-.078 1.416-1.836 1.362-3.18-.06-1.338-.402-4.446-2.148-4.29-1.74.156-1.338 4.212-1.338 4.212z" fill="#12545B"/><path d="M121.438 408.318c.462 7.356.792 56.598.792 70.236M128.176 417.156c-2.736 2.352-5.022 6.126-6.348 10.824M128.842 436.308c-3.84 4.128-6.066 10.206-6.798 14.502M106.924 436.614c5.562 3.33 12.864 11.37 14.91 15.936" stroke="#008A8A" stroke-width="1.5" stroke-linecap="round" stroke-linejoin="round"/><path d="M-25.124 352.29v129.768l105.75-8.808V363.93l-105.75-11.64z" fill="#FFD6C9"/><path d="M27.754 303.528l-52.878 48.762 105.75 11.64-52.872-60.402z" fill="#FAA489"/><path d="M-91.556 373.932l66.432-21.642 52.878-48.762-85.368 35.358-33.942 35.046zM10.804 416.826v62.232l33.894-2.796v-59.106l-33.894-.33z" fill="#0075AA"/><path d="M6.43 367.362l-19.722-1.626v9.21l19.722 1.362v-8.946z" fill="#fff"/><path d="M-13.292 374.946v27.798l19.722.516v-26.952l-19.722-1.362zM17.89 394.764v8.898l19.722.57v-8.592l-19.722-.876z" fill="#00486A"/><path d="M17.89 368.292v26.472l19.722.876v-25.746l-19.722-1.602zM49.078 370.872v16.842l19.716 1.062V372.48l-19.716-1.608z" fill="#fff"/><path d="M49.078 387.714v16.8l19.716.63v-16.368l-19.716-1.062z" fill="#00486A"/><path d="M-21.176 302.028c-1.206-4.47-8.166-22.308 12.678-40.704 11.976-10.566 17.976-17.064 19.44-26.154" stroke="#00486A" stroke-width="1.5" stroke-linecap="round" stroke-linejoin="round"/><path d="M-29.006 297.054c-1.956-7.566-2.664-19.272 5.652-30.36 8.49-11.316 20.838-17.316 23.808-28.062" stroke="#00486A" stroke-width="1.5" stroke-linecap="round" stroke-linejoin="round"/><path d="M-60.146 485.214c12.948-23.91 51.672-67.392 58.662-51.408 4.398 10.062-17.682 33.906-17.682 33.906S-.668 454.236 5.176 461.1c3.198 3.756-.804 12.96-7.05 19.014-8.076.69-58.272 5.094-58.272 5.094v.006z" fill="#50C193"/><path d="M49.996 477.936c1.284-10.506 10.296-39.6 18.9-38.358 8.418 1.212 3.09 24.666 3.09 24.666s9.762-11.736 15.594-7.764c5.832 3.978 1.44 18.456 1.44 18.456l-39.024 3.006v-.006z" stroke="#12545B" stroke-width="1.5" stroke-linecap="round" stroke-linejoin="round"/><path d="M44.698 476.262l52.494-4.368-2.628 3.324-48.216 5.928-1.65-4.884z" fill="#9BD8BF"/><path d="M355.306 409.428s3.9 2.898 6.3 4.746c3.018 2.322 7.746 5.538 9.09 9.534 2.43 7.254 3.852 24.15 3.276 34.68-.564 10.32-7.536 26.502-7.536 26.502l-5.346-1.35s1.728-21.33 1.956-25.884c.228-4.554-2.838-22.26-2.838-22.26l-4.902-25.974v.006z" fill="#FAA489"/><path d="M355.306 409.429l5.664 30.36 12.42-3.846c-.612-3.768-1.506-8.64-2.544-11.796-3.114-9.48-15.534-14.718-15.534-14.718h-.006z" fill="#44B0DF"/><path d="M306.25 502.662v-15.504l-6.63-7.302v15.282" stroke="#BA2C5F" stroke-width="1.5" stroke-linecap="round" stroke-linejoin="round"/><path d="M299.074 479.142l8.598 9.528" stroke="#BA2C5F" stroke-width="4" stroke-linecap="round" stroke-linejoin="round"/><path d="M294.778 489.39h-7.86l12.852 14.58c.612.69.948 1.584.948 2.502v39.942h9.564v-40.008c0-.882-.324-1.728-.906-2.388l-11.904-13.422a3.608 3.608 0 00-2.694-1.212v.006z" fill="#FFBCA8"/><path d="M300.622 546.24v-40.014c0-.876-.318-1.722-.9-2.382l-12.9-14.634h-6.75a3.603 3.603 0 00-3.6 3.6v53.43h24.156-.006z" fill="#FFBCA8"/><path d="M286.918 489.39l12.9 14.634c.582.66.9 1.506.9 2.382v40.014M290.272 546.21v-40.014c0-.876-.318-1.722-.9-2.382l-11.898-13.494M276.484 507.888l13.8 15.654M276.484 511.872l13.8 15.654" stroke="#BA2C5F" stroke-width="1.5" stroke-linecap="round" stroke-linejoin="round"/><path d="M280.948 507.228v-3.036l3.384 3.828v3.042l-3.384-3.834z" stroke="#BA2C5F" stroke-width="1.5" stroke-linecap="round" stroke-linejoin="round"/><path d="M347.758 472.53l11.802 70.308h13.476s5.388-31.134-4.554-42.006c0 0 5.496-42.438-7.356-52.23 0 0-25.452-11.898-13.368 23.928z" fill="#00486A"/><path d="M359.56 542.838l-9.582-59.244" stroke="#281E1E" stroke-width="1.5" stroke-linecap="round" stroke-linejoin="round"/><path d="M339.946 451.254c-5.088 2.952-8.412 10.95-11.568 24.906-3.54 15.666-3.96 26.34-3.966 30.804 0 4.686 1.83 35.874 1.83 35.874h14.64s5.844-24.72.456-36.06c0 0 16.08-43.032 17.292-48.048 1.212-5.016-18.684-7.476-18.684-7.476z" fill="#00486A"/><path d="M343.348 484.158c8.178-.372 18.774-2.418 18.774-2.418M350.038 483.972l-8.7 22.812s5.622 9.426-.456 36.06" stroke="#281E1E" stroke-width="1.5" stroke-linecap="round" stroke-linejoin="round"/><path d="M355.618 403.17c2.118-2.394 3.384-6.078 3.312-9.522-.078-3.756-2.712-6.714-7.158-7.374-4.446-.666-8.226 1.062-8.742 5.922-.516 4.854-2.322 10.506-.174 12.978.702.804 1.572 1.326 2.538 1.626l.18 2.634h9.732l-.246-5.682c.192-.186.378-.378.558-.576v-.006z" fill="#FAA489"/><path d="M345.946 397.29l1.98-5.736-3.588.258c-.456 2.736-.636 5.862-2.358 7.566-.276 2.412-.24 4.392.882 5.796 1.092 1.362 2.538 1.626 2.538 1.626l.552-9.504-.006-.006z" fill="#552C22"/><path d="M358.93 393.648c-.18-3.198-1.452-5.4-4.614-6.666-.708-.282-1.17-.486-3.564-1.134-3.054-.828-6.39-2.628-8.304.15-.942 1.368-.81 3.954.282 6.018.582 1.098 1.446 2.262 2.202 3.018 0 0-.75 5.064 1.86 8.088 2.37 2.742 7.074 2.574 9 .27 2.448-2.928 3.312-6.636 3.138-9.744z" fill="#713B2D"/><path d="M344.56 395.766c.708-1.584 2.244-1.674 2.628-.882.474.99-.78 3.15-2.784 3.648l.162-2.766h-.006z" fill="#FAA489"/><path d="M334.114 427.158l-4.326 30.828c9.384 4.476 33.876 4.476 39.648.792l-2.328-29.16-11.796-20.19h-9.732l-11.46 17.73h-.006z" fill="#44B0DF"/><path d="M367.102 431.628l2.328 27.15" stroke="#00486A" stroke-width="1.5" stroke-linecap="round" stroke-linejoin="round"/><path d="M345.574 409.428c-5.052 3.276-14.01 8.148-15.822 12.822-.678 1.752-1.854 6.534-3.06 11.832-2.016 8.838-4.11 19.116-4.11 19.116s-12.504 20.634-13.464 22.194c0 0-5.178 3.324-6.294 5.208-1.194 2.01-2.364 5.766-.918 6.054 1.542.306 2.682-1.2 4.314-2.682 2.046-1.86 3.948-2.094 5.418-3.444 1.41-1.296 18.09-16.158 20.7-23.1.96-2.556 6.786-23.136 6.786-23.136l6.45-24.864z" fill="#FAA489"/><path d="M345.574 409.428c-5.508 2.382-13.692 6.864-16.164 12.72-.966 2.298-2.082 6.144-3.174 10.938l12.432 4.902c.726-1.998 8.616-8.868 8.616-8.868l-1.716-19.692h.006z" fill="#44B0DF"/><path d="M339.172 433.26l-7.272 25.722" stroke="#00486A" stroke-width="1.5" stroke-linecap="round" stroke-linejoin="round"/><path d="M305.8 482.526c-1.578 1.44-2.988 3.642-2.46 3.72.648.09 1.188-.882 2.184-1.764 1.086-.96 2.136-1.536 2.742-1.908" stroke="#281E1E" stroke-width="1.5" stroke-linecap="round" stroke-linejoin="round"/><path d="M304.636 481.878c-1.176 1.26-2.658 4.284-2.37 4.692.324.462 1.068-.324 1.068-.324M303.52 481.272c-1.02 1.392-2.742 5.574-1.254 5.298" stroke="#281E1E" stroke-width="1.5" stroke-linecap="round" stroke-linejoin="round"/><path d="M64.702 554.85c8.868-16.452 44.436-60.402 104.226-54.732 59.808 5.67 85.11 67.812 85.11 67.812L64.702 554.85z" fill="#2CAD79"/><path d="M173.152 500.514l-9.81 61.656M144.67 500.514l11.286 60.234M172.222 562.272l30.504-51.888M113.674 509.79l32.562 50.688M88.132 526.728l30.36 31.188M227.728 529.386l-41.982 33.822" stroke="#BBE3D3" stroke-width="1.5" stroke-linecap="round" stroke-linejoin="round"/><path d="M246.424 490.698c2.61-5.25 2.724-13.218-1.752-14.694-4.698-1.548-8.004 3.846-11.652 8.808-2.22 3.03-6.924 7.722-3.81 12.204 3.942 5.688 12.864 2.424 17.214-6.324v.006zM200.05 486.588c-1.818 2.148-2.058 4.542-.72 6.066 1.08 1.236 4.05 1.128 6.738-1.956 2.838-3.252 2.712-5.916 1.254-7.068-1.458-1.152-4.458-.366-7.272 2.958z" fill="#2CAD79"/><path d="M493.18 479.994c5.328 1.944 9.84 1.602 10.374-2.376.498-3.678-4.452-6.354-8.418-8.376-2.418-1.23-6.354-4.068-8.952-1.146-3.288 3.702.444 9.51 6.99 11.898h.006zM440.59 455.862c2.736 4.392 9.66 7.134 11.43 4.638 1.902-2.682-1.992-6.186-5.22-8.73-4.188-3.3-9.192-.684-6.21 4.098v-.006zM638.41 545.796c-15.42-35.43-47.628-72.774-93.93-69.858-39.858 2.514-66.648 33.396-78.282 67.14l172.212 2.718z" fill="#50C193"/><path d="M524.338 479.874l23.316 64.494M571.78 479.046l-31.296 45.486M488.194 504.57l47.55 6.858M608.824 501.786l-62.094 40.026M474.88 523.566l68.112 7.908M553.528 505.566l2.604-29.784M579.268 520.944l7.332-35.736M577.192 544.83l48.09-23.064" stroke="#BBE3D3" stroke-width="1.5" stroke-linecap="round" stroke-linejoin="round"/><path d="M651.442 570.144c-4.056-23.724-9.6-127.134 74.262-149.892 93.906-25.488 157.14 71.838 173.262 132.306L651.442 570.15v-.006z" fill="#189E68"/><path d="M764.638 562.098L746.314 416.52M759.97 525.012l49.86-94.65M857.602 471.954l-94.59 77.226M777.388 418.242l-23.916 55.164M666.22 467.634l92.268 45.624M686.764 441.036l68.328 45.24M712.696 424.698l15.126 43.524M716.74 492.612h-60.51" stroke="#BBE3D3" stroke-width="1.38" stroke-linecap="round" stroke-linejoin="round"/><path d="M606.16 467.394c-2.994 6.222 4.836 9.564 9.822 15.09 5.076 5.622 10.344 14.766 16.23 9.462 6.396-5.76-1.494-17.094-8.7-22.794-4.422-3.498-14.646-7.392-17.352-1.758z" fill="#2CAD79"/><path d="M761.158 534.468l-110.31-14.514" stroke="#BBE3D3" stroke-width="1.38" stroke-linecap="round" stroke-linejoin="round"/><path d="M76.9 595.71s7.524-114.066-81.726-123.792c-111-12.102-165.882 123.792-165.882 123.792M73.732 512.316c2.988 4.356 9.138-.126 11.706-2.646 4.002-3.918 10.758-6.816 11.61-12.228.966-6.174-7.002-9-15.624-.996-5.742 5.334-10.416 11.892-7.692 15.864v.006z" fill="#008A8A"/><path d="M46.348 496.146L-36.2 549.18M15.376 476.346l-45.114 37.056M12.484 517.902l18.33-34.308M-43.394 588.978l108.768-62.916" stroke="#BBE3D3" stroke-width="1.52" stroke-linecap="round" stroke-linejoin="round"/></g><defs><clipPath id="homepage-mobile_3813ca14__clip0_13540_227986"><path fill="#fff" d="M0 0h770v540H0z"/></clipPath></defs></svg>